<svg id="Logo" xmlns="http://www.w3.org/2000/svg" xmlns:xlink="http://www.w3.org/1999/xlink" width="83.865" height="89" viewBox="0 0 83.865 89">
  <defs>
    <linearGradient id="linear-gradient" x1="0.056" y1="1.155" x2="0.966" y2="-0.123" gradientUnits="objectBoundingBox">
      <stop offset="0" stop-color="#6c6cff"/>
      <stop offset="1" stop-color="#1f27ff"/>
    </linearGradient>
    <linearGradient id="linear-gradient-2" x1="0.413" y1="0.903" x2="0.75" y2="0.01" xlink:href="#linear-gradient"/>
    <linearGradient id="linear-gradient-3" x1="0.189" y1="0.851" x2="0.679" y2="0.225" gradientUnits="objectBoundingBox">
      <stop offset="0" stop-color="#323232"/>
      <stop offset="0.016" stop-color="#353535"/>
      <stop offset="0.194" stop-color="#555"/>
      <stop offset="0.378" stop-color="#6e6e6e"/>
      <stop offset="0.569" stop-color="gray"/>
      <stop offset="0.77" stop-color="#8b8b8b"/>
      <stop offset="1" stop-color="#8f8f8f"/>
    </linearGradient>
    <linearGradient id="linear-gradient-4" x1="-0.971" y1="0.76" x2="1.278" y2="0.309" xlink:href="#linear-gradient-3"/>
    <linearGradient id="linear-gradient-5" x1="0.497" y1="1.013" x2="0.509" y2="0.004" xlink:href="#linear-gradient"/>
    <linearGradient id="linear-gradient-6" x1="0.405" y1="0.502" x2="0.998" y2="0.125" gradientUnits="objectBoundingBox">
      <stop offset="0" stop-color="#6c6cff"/>
      <stop offset="0.359" stop-color="#5356ff"/>
      <stop offset="1" stop-color="#1f27ff"/>
    </linearGradient>
  </defs>
  <path id="Path_2087" data-name="Path 2087" d="M1.008-2.409V-3.7a.573.573,0,0,1,.168-.422.568.568,0,0,1,.42-.169H3.233a.568.568,0,0,1,.42.169A.573.573,0,0,1,3.82-3.7v.4a.542.542,0,0,0,.189.422l.336.358a.67.67,0,0,0,.42.169H8.647a.67.67,0,0,0,.42-.169l.357-.379a.531.531,0,0,0,.168-.422V-5.276A.573.573,0,0,0,9.424-5.7l-.336-.337a.568.568,0,0,0-.42-.169h-5.1a.537.537,0,0,1-.42-.19L1.218-8.333a.548.548,0,0,1-.168-.4V-12.17a.573.573,0,0,1,.168-.422l1.931-1.939a.568.568,0,0,1,.42-.169h6.17a.568.568,0,0,1,.42.169l1.931,1.939a.573.573,0,0,1,.168.422v1.307a.567.567,0,0,1-.178.411.562.562,0,0,1-.409.179H10.012a.562.562,0,0,1-.409-.179.567.567,0,0,1-.178-.411v-.443a.573.573,0,0,0-.168-.422l-.336-.337a.581.581,0,0,0-.42-.19H4.807a.581.581,0,0,0-.42.19l-.336.337a.586.586,0,0,0-.189.422v1.687a.542.542,0,0,0,.189.422l.336.358a.67.67,0,0,0,.42.169h5.1a.568.568,0,0,1,.42.169l1.931,1.939a.677.677,0,0,1,.168.422v3.689a.548.548,0,0,1-.168.4L10.285-.069a.5.5,0,0,1-.42.19H3.527a.537.537,0,0,1-.42-.19L1.176-2.009A.548.548,0,0,1,1.008-2.409ZM27.054-.849a.566.566,0,0,1,.031.6.536.536,0,0,1-.514.306h-1.91a.534.534,0,0,1-.483-.274L20.631-5.825a.534.534,0,0,0-.483-.274h-1.3a.568.568,0,0,0-.42.169.573.573,0,0,0-.168.422V-.533a.567.567,0,0,1-.178.411.562.562,0,0,1-.409.179h-1.7a.562.562,0,0,1-.409-.179.567.567,0,0,1-.178-.411V-12.381h-.273a.468.468,0,0,1-.346-.137.447.447,0,0,1-.136-.327V-14.3a.447.447,0,0,1,.136-.327.468.468,0,0,1,.346-.137h2.56a.562.562,0,0,1,.409.179.567.567,0,0,1,.178.411v4.828a.584.584,0,0,0,.168.411.551.551,0,0,0,.42.179h1.3a.575.575,0,0,0,.5-.3l3.232-5.418a.575.575,0,0,1,.5-.3h1.847a.558.558,0,0,1,.525.306.579.579,0,0,1,0,.6L23.129-7.68a.568.568,0,0,0,.021.611Zm3.4-13.787h1.7a.579.579,0,0,1,.409.169.556.556,0,0,1,.178.422V-.428a.556.556,0,0,1-.178.422.579.579,0,0,1-.409.169h-1.7a.579.579,0,0,1-.409-.169.556.556,0,0,1-.178-.422V-14.046a.556.556,0,0,1,.178-.422A.579.579,0,0,1,30.454-14.637ZM45.88-2.325a.562.562,0,0,1,.409.179.567.567,0,0,1,.178.411V-.47a.567.567,0,0,1-.178.411A.562.562,0,0,1,45.88.12H36.813A.562.562,0,0,1,36.4-.059a.567.567,0,0,1-.178-.411V-12.339h-.273a.489.489,0,0,1-.346-.126.438.438,0,0,1-.136-.337v-1.434a.447.447,0,0,1,.136-.327.468.468,0,0,1,.346-.137h2.56a.562.562,0,0,1,.409.179.567.567,0,0,1,.178.411V-2.915a.573.573,0,0,0,.168.422.568.568,0,0,0,.42.169Zm2.183-.084V-3.7a.573.573,0,0,1,.168-.422.568.568,0,0,1,.42-.169h1.637a.568.568,0,0,1,.42.169.573.573,0,0,1,.168.422v.4a.542.542,0,0,0,.189.422l.336.358a.67.67,0,0,0,.42.169H55.7a.67.67,0,0,0,.42-.169l.357-.379a.531.531,0,0,0,.168-.422V-5.276a.573.573,0,0,0-.168-.422l-.336-.337a.568.568,0,0,0-.42-.169h-5.1a.537.537,0,0,1-.42-.19L48.272-8.333a.548.548,0,0,1-.168-.4V-12.17a.573.573,0,0,1,.168-.422L50.2-14.531a.568.568,0,0,1,.42-.169h6.17a.568.568,0,0,1,.42.169l1.931,1.939a.573.573,0,0,1,.168.422v1.307a.567.567,0,0,1-.178.411.562.562,0,0,1-.409.179H57.066a.562.562,0,0,1-.409-.179.567.567,0,0,1-.178-.411v-.443a.573.573,0,0,0-.168-.422l-.336-.337a.581.581,0,0,0-.42-.19H51.861a.581.581,0,0,0-.42.19l-.336.337a.586.586,0,0,0-.189.422v1.687a.542.542,0,0,0,.189.422l.336.358a.67.67,0,0,0,.42.169h5.1a.568.568,0,0,1,.42.169l1.931,1.939a.677.677,0,0,1,.168.422v3.689a.548.548,0,0,1-.168.4L57.339-.069a.5.5,0,0,1-.42.19H50.581a.537.537,0,0,1-.42-.19L48.23-2.009A.548.548,0,0,1,48.062-2.409Zm16.643-9.866H61.473a.568.568,0,0,1-.42-.169.573.573,0,0,1-.168-.422v-1.244a.584.584,0,0,1,.168-.411.551.551,0,0,1,.42-.179H71.967a.551.551,0,0,1,.42.179.584.584,0,0,1,.168.411v1.244a.573.573,0,0,1-.168.422.568.568,0,0,1-.42.169H68.735a.562.562,0,0,0-.409.179.567.567,0,0,0-.178.411V-.47a.584.584,0,0,1-.168.411.551.551,0,0,1-.42.179H65.881a.551.551,0,0,1-.42-.179.584.584,0,0,1-.168-.411V-11.685a.567.567,0,0,0-.178-.411A.562.562,0,0,0,64.705-12.275ZM77.529-14.7h1.8a.577.577,0,0,1,.325.105.56.56,0,0,1,.22.274L84.833-.681a.586.586,0,0,1-.063.548.545.545,0,0,1-.483.253H82.629a.544.544,0,0,1-.546-.4L81.16-2.789a.542.542,0,0,0-.546-.379H76.249a.542.542,0,0,0-.546.379L74.78-.28a.544.544,0,0,1-.546.4H72.576a.545.545,0,0,1-.483-.253.586.586,0,0,1-.063-.548l4.953-13.64a.56.56,0,0,1,.22-.274A.577.577,0,0,1,77.529-14.7Zm2.036,9.17a.552.552,0,0,0,.472-.253.57.57,0,0,0,.073-.548L78.6-10.673a.147.147,0,0,0-.168-.126.165.165,0,0,0-.168.126L76.752-6.309a.533.533,0,0,0,.084.538.586.586,0,0,0,.483.242Z" transform="translate(-1.008 88.837)" fill="#323232"/>
  <g id="Group_1776" data-name="Group 1776" transform="translate(3.997)">
    <path id="Path_480" data-name="Path 480" d="M4812.845,1574.392c39.825-6.3,73.925-31.265,74.106-31.4-8.363,8.326-30.925,25.773-53.544,32.961Z" transform="translate(-4812.845 -1542.612)" fill="url(#linear-gradient)"/>
    <path id="Path_481" data-name="Path 481" d="M4942.667,1627.625l-7.5-10.46,14-10.583L4941.2,1617.3l14.211,19.83Z" transform="translate(-4894.798 -1585.287)" fill="url(#linear-gradient-2)"/>
    <path id="Path_484" data-name="Path 484" d="M4833.407,1575.891l7.546,2.5-.083,12.845,7.631-10.344,12.214,4.051-7.5-10.442,14-10.564-7.974,10.7,14.21,19.8-23.151-7.677-14.467,19.607.158-24.352-23.151-7.677c39.825-6.29,73.925-31.21,74.106-31.349C4878.588,1551.3,4856.026,1568.716,4833.407,1575.891Z" transform="translate(-4812.845 -1542.611)" fill="none"/>
    <path id="Path_487" data-name="Path 487" d="M4891.558,1561.316l-3.6-4.674.354,5.865q-2.45.874-4.98,1.7l.146-22.359,12.665,17.673Q4893.9,1560.432,4891.558,1561.316Z" transform="translate(-4860.067 -1541.848)" fill="none"/>
    <g id="Group_1416" data-name="Group 1416" transform="translate(23.263 0)">
      <path id="Path_485" data-name="Path 485" d="M4883.771,1541.848l12.665,17.673q-2.247.911-4.586,1.795l-3.6-4.674Z" transform="translate(-4883.626 -1541.848)" fill="url(#linear-gradient-3)"/>
      <path id="Path_486" data-name="Path 486" d="M4887.957,1556.642l.354,5.865q-2.45.874-4.98,1.7l.146-22.359Z" transform="translate(-4883.332 -1541.848)" fill="url(#linear-gradient-4)"/>
    </g>
    <path id="Path_482" data-name="Path 482" d="M4920.124,1671.608l-23.149-7.691-14.467,19.642,5.033-15.152,7.63-10.361,12.213,4.057Z" transform="translate(-4859.516 -1619.806)" fill="url(#linear-gradient-5)"/>
    <path id="Path_483" data-name="Path 483" d="M4835.837,1670.221l.158-24.4-23.151-7.69,20.562,1.557,7.546,2.507-.083,12.868Z" transform="translate(-4812.845 -1606.467)" fill="url(#linear-gradient-6)"/>
  </g>
</svg>
