<svg id="logo" xmlns="http://www.w3.org/2000/svg" width="191.644" height="56" viewBox="0 0 191.644 56">
  <path id="Path_204" data-name="Path 204" d="M89.011,137.963V125.758c0-7.011,2.238-11.445,9.756-11.445,7.01,0,9.249,3.885,9.249,9.84v2.872h-6v-2.956c0-2.872-.042-5.194-3.209-5.194-3.21,0-3.506,2.449-3.506,5.574v14.824c0,3.717.761,5.49,3.506,5.49,3.082,0,3.209-2.408,3.209-5.448v-3.083h6v2.745c0,6.04-2.027,10.389-9.249,10.389C91.249,149.367,89.011,144.637,89.011,137.963Z" transform="translate(-89.011 -94.493)" fill="#ffc42e"/>
  <path id="Path_205" data-name="Path 205" d="M237,84.051,199.819,81.92V80.873a.732.732,0,0,0-.775-.775h-4.65a.732.732,0,0,0-.775.775v.792L119,83.936a.765.765,0,0,0-.7.775v4.65a.833.833,0,0,0,.774.775h8.525V100.7l-2.548.51.01,34.887,5.756-1.153-.185-8.017,5.839-1.17,2.876,7.479,5.673-1.137L131.6,99.9l-2.445.489V90.136l64.463.037v43.412a.732.732,0,0,0,.775.775h4.65a.732.732,0,0,0,.775-.775V90.174h36.794a.834.834,0,0,0,.775-.775v-4.65A.814.814,0,0,0,237,84.051ZM135.036,122l-4.556.912-.542-14.537ZM195.17,89.476l2.635,2.248-2.635,2.17Zm0,7.75,2.635,2.248-2.635,2.17Zm0,7.75,2.635,2.248-2.635,2.17Zm0,7.786,2.635,2.248-2.635,2.17Zm0,7.75,2.635,2.248-2.635,2.17Zm3.1,12.323h-3.1v-4.5l3.1,2.558Zm0-3.952-2.635-2.248,2.635-2.248Zm0-7.75-2.635-2.248,2.635-2.248Zm0-7.75-2.635-2.248,2.635-2.248Zm0-7.786-2.635-2.247,2.635-2.248Zm0-7.75L195.634,95.6l2.635-2.248Zm0-8.448v.7l-2.635-2.247,2.635-2.248Zm0-6.975v1.24l-3.1,2.558V81.648h3.1Z" transform="translate(-101.336 -80.098)" fill="#ffc42e"/>
  <path id="Path_206" data-name="Path 206" d="M166.942,114.969h4.35l8.32,19.512V114.969h5.153v34.209h-4.14l-8.362-20.441v20.441h-5.321Z" transform="translate(-121.798 -94.769)" fill="#ffc42e"/>
  <path id="Path_207" data-name="Path 207" d="M205,138.935l5.364-1.055c.169,4.054,1.14,6.672,3.885,6.672,1.985,0,2.83-1.351,2.83-3.209,0-2.956-1.521-4.6-3.76-6.546l-4.307-3.759a10.093,10.093,0,0,1-3.97-8.277c0-5.406,3.378-8.447,8.827-8.447,6.42,0,8.235,4.308,8.573,9.291l-5.363.929c-.127-3.21-.591-5.617-3.337-5.617-1.858,0-2.872,1.394-2.872,3.21,0,2.323.971,3.59,2.788,5.153l4.266,3.758c2.787,2.408,5.11,5.406,5.11,9.925,0,4.941-3.463,8.4-8.573,8.4C208.207,149.367,205.251,145.735,205,138.935Z" transform="translate(-137.808 -94.493)" fill="#ffc42e"/>
  <path id="Path_208" data-name="Path 208" d="M273.3,114.969h8.235c6.842,0,10.728,2.2,10.728,9.08,0,4.1-1.014,6.968-4.224,8.277l4.772,16.851h-6.25l-4.1-15.668h-2.957v15.668H273.3Zm8.193,14.655c3.59,0,4.9-1.562,4.9-5.237,0-3.463-.971-5.153-4.561-5.153h-2.324v10.389Z" transform="translate(-166.546 -94.769)" fill="#ffc42e"/>
  <path id="Path_209" data-name="Path 209" d="M313.328,138.113V114.969h6.082v23.862c0,3.252.379,6.166,3.548,6.166,3.21,0,3.59-2.914,3.59-6.166V114.969h6.039v23.144c0,7.18-1.985,11.53-9.629,11.53C315.271,149.643,313.328,145.293,313.328,138.113Z" transform="translate(-183.385 -94.769)" fill="#ffc42e"/>
  <path id="Path_210" data-name="Path 210" d="M353.861,137.963V125.758c0-7.011,2.239-11.445,9.756-11.445,7.011,0,9.249,3.885,9.249,9.84v2.872h-6v-2.956c0-2.872-.042-5.194-3.21-5.194-3.21,0-3.505,2.449-3.505,5.574v14.824c0,3.717.76,5.49,3.505,5.49,3.083,0,3.21-2.408,3.21-5.448v-3.083h6v2.745c0,6.04-2.028,10.389-9.249,10.389C356.1,149.367,353.861,144.637,353.861,137.963Z" transform="translate(-200.438 -94.493)" fill="#ffc42e"/>
  <path id="Path_211" data-name="Path 211" d="M395.907,119.573h-5.448v-4.6h17.02v4.6h-5.322v29.605h-6.25Z" transform="translate(-215.835 -94.769)" fill="#ffc42e"/>
</svg>
